<svg xmlns="http://www.w3.org/2000/svg">
  <defs>
    <!-- astro icon -->
    <symbol id="astro" viewBox="0 0 85 107">
      <path d="M27.5894 91.1365C22.7555 86.7178 21.3444 77.4335 23.3583 70.7072C26.8503 74.948 31.6888 76.2914 36.7005 77.0497C44.4375 78.2199 52.0359 77.7822 59.2232 74.2459C60.0454 73.841 60.8052 73.3027 61.7036 72.7574C62.378 74.714 62.5535 76.6892 62.318 78.6996C61.7452 83.5957 59.3086 87.3778 55.4332 90.2448C53.8835 91.3916 52.2437 92.4167 50.6432 93.4979C45.7262 96.8213 44.3959 100.718 46.2435 106.386C46.2874 106.525 46.3267 106.663 46.426 107C43.9155 105.876 42.0817 104.24 40.6845 102.089C39.2087 99.8193 38.5066 97.3081 38.4696 94.5909C38.4511 93.2686 38.4511 91.9345 38.2733 90.6309C37.8391 87.4527 36.3471 86.0297 33.5364 85.9478C30.6518 85.8636 28.37 87.6469 27.7649 90.4554C27.7187 90.6707 27.6517 90.8837 27.5847 91.1341L27.5894 91.1365Z" fill="#F041FF"/>
      <path d="M0 69.5866C0 69.5866 14.3139 62.6137 28.6678 62.6137L39.4901 29.1204C39.8953 27.5007 41.0783 26.3999 42.4139 26.3999C43.7495 26.3999 44.9325 27.5007 45.3377 29.1204L56.1601 62.6137C73.1601 62.6137 84.8278 69.5866 84.8278 69.5866C84.8278 69.5866 60.5145 3.35233 60.467 3.21944C59.7692 1.2612 58.5911 0 57.0029 0H27.8274C26.2392 0 25.1087 1.2612 24.3634 3.21944C24.3108 3.34983 0 69.5866 0 69.5866Z" fill="currentColor"/>
    </symbol>

    <!-- javascript icon -->
    <symbol id="javascript" viewBox="0 0 630 630">
      <rect width="630" height="630" fill="#f7df1e"/>
      <path fill="black" d="m423.2 492.19c12.69 20.72 29.2 35.95 58.4 35.95 24.53 0 40.2-12.26 40.2-29.2 0-20.3-16.1-27.49-43.1-39.3l-14.8-6.35c-42.72-18.2-71.1-41-71.1-89.2 0-44.4 33.83-78.2 86.7-78.2 37.64 0 64.7 13.1 84.2 47.4l-46.1 29.6c-10.15-18.2-21.1-25.37-38.1-25.37-17.34 0-28.33 11-28.33 25.37 0 17.76 11 24.95 36.4 35.95l14.8 6.34c50.3 21.57 78.7 43.56 78.7 93 0 53.3-41.87 82.5-98.1 82.5-54.98 0-90.5-26.2-107.88-60.54zm-209.13 5.13c9.3 16.5 17.76 30.45 38.1 30.45 19.45 0 31.72-7.61 31.72-37.2v-201.3h59.2v202.1c0 61.3-35.94 89.2-88.4 89.2-47.4 0-74.85-24.53-88.81-54.075z"/>
    </symbol>

    <!-- typescript icon -->
    <symbol id="typescript" fill="none" viewBox="0 0 512 512">
      <rect fill="#3178c6" height="512" rx="50" width="512"/>
      <rect fill="#3178c6" height="512" rx="50" width="512"/>
      <path clip-rule="evenodd" fill="#fff" fill-rule="evenodd" d="m316.939 407.424v50.061c8.138 4.172 17.763 7.3 28.875 9.386s22.823 3.129 35.135 3.129c11.999 0 23.397-1.147 34.196-3.442 10.799-2.294 20.268-6.075 28.406-11.342 8.138-5.266 14.581-12.15 19.328-20.65s7.121-19.007 7.121-31.522c0-9.074-1.356-17.026-4.069-23.857s-6.625-12.906-11.738-18.225c-5.112-5.319-11.242-10.091-18.389-14.315s-15.207-8.213-24.18-11.967c-6.573-2.712-12.468-5.345-17.685-7.9-5.217-2.556-9.651-5.163-13.303-7.822-3.652-2.66-6.469-5.476-8.451-8.448-1.982-2.973-2.974-6.336-2.974-10.091 0-3.441.887-6.544 2.661-9.308s4.278-5.136 7.512-7.118c3.235-1.981 7.199-3.52 11.894-4.615 4.696-1.095 9.912-1.642 15.651-1.642 4.173 0 8.581.313 13.224.938 4.643.626 9.312 1.591 14.008 2.894 4.695 1.304 9.259 2.947 13.694 4.928 4.434 1.982 8.529 4.276 12.285 6.884v-46.776c-7.616-2.92-15.937-5.084-24.962-6.492s-19.381-2.112-31.066-2.112c-11.895 0-23.163 1.278-33.805 3.833s-20.006 6.544-28.093 11.967c-8.086 5.424-14.476 12.333-19.171 20.729-4.695 8.395-7.043 18.433-7.043 30.114 0 14.914 4.304 27.638 12.912 38.172 8.607 10.533 21.675 19.45 39.204 26.751 6.886 2.816 13.303 5.579 19.25 8.291s11.086 5.528 15.415 8.448c4.33 2.92 7.747 6.101 10.252 9.543 2.504 3.441 3.756 7.352 3.756 11.733 0 3.233-.783 6.231-2.348 8.995s-3.939 5.162-7.121 7.196-7.147 3.624-11.894 4.771c-4.748 1.148-10.303 1.721-16.668 1.721-10.851 0-21.597-1.903-32.24-5.71-10.642-3.806-20.502-9.516-29.579-17.13zm-84.159-123.342h64.22v-41.082h-179v41.082h63.906v182.918h50.874z"/>
    </symbol>

    <!-- tailwind icon -->
    <symbol id="tailwind" viewBox="0 0 47 40" fill="none">
      <path fill="#6366f1" d="M23.5 6.5C17.5 6.5 13.75 9.5 12.25 15.5C14.5 12.5 17.125 11.375 20.125 12.125C21.8367 12.5529 23.0601 13.7947 24.4142 15.1692C26.6202 17.4084 29.1734 20 34.75 20C40.75 20 44.5 17 46 11C43.75 14 41.125 15.125 38.125 14.375C36.4133 13.9471 35.1899 12.7053 33.8357 11.3308C31.6297 9.09158 29.0766 6.5 23.5 6.5ZM12.25 20C6.25 20 2.5 23 1 29C3.25 26 5.875 24.875 8.875 25.625C10.5867 26.0529 11.8101 27.2947 13.1642 28.6693C15.3702 30.9084 17.9234 33.5 23.5 33.5C29.5 33.5 33.25 30.5 34.75 24.5C32.5 27.5 29.875 28.625 26.875 27.875C25.1633 27.4471 23.9399 26.2053 22.5858 24.8307C20.3798 22.5916 17.8266 20 12.25 20Z"/>
    </symbol>s

    <!-- lua icon -->
    <symbol viewBox="0 0 128 128" id="lua">
      <path fill="navy" d="M112.956.708c-7.912 0-14.335 6.424-14.335 14.336s6.424 14.335 14.335 14.335 14.335-6.41 14.335-14.335c0-7.912-6.424-14.336-14.335-14.336zM64 15.058c-27.02 0-48.956 21.935-48.956 48.955S36.979 112.97 64 112.97c27.02 0 48.956-21.935 48.956-48.956 0-27.02-21.936-48.956-48.956-48.956z"/>
      <path fill="#fff" d="M84.285 29.392c-7.91 0-14.335 6.424-14.335 14.335s6.424 14.336 14.335 14.336 14.336-6.424 14.336-14.336-6.424-14.335-14.335-14.335zM30.773 56.36v32.119h19.961v-3.611H34.87V56.359Zm57.584 8.37c-3.354 0-6.126.975-7.668 2.692-1.055 1.19-1.488 2.516-1.582 4.801h3.705c.311-2.826 1.988-4.098 5.423-4.098 3.3 0 5.153 1.231 5.153 3.435v.974c0 1.542-.92 2.205-3.827 2.556-5.193.663-5.991.839-7.398 1.407-2.69 1.095-4.057 3.164-4.057 6.166 0 4.193 2.908 6.83 7.574 6.83 2.907 0 5.247-1.014 7.843-3.395.257 2.34 1.407 3.395 3.787 3.395.757 0 1.325-.081 2.515-.392v-2.773a2.917 2.917 0 0 1-.798.095c-1.284 0-1.988-.663-1.988-1.812V71.032c0-4.098-3.002-6.302-8.682-6.302zm-33.742.664V83.19c0 3.84 2.867 6.302 7.357 6.302 3.395 0 5.545-1.19 7.709-4.233v3.219h3.3V65.393h-3.652v13.09c0 4.72-2.475 7.804-6.302 7.804-2.907 0-4.76-1.772-4.76-4.544v-16.35Zm38.773 11.67v4.139c0 1.244-.365 1.988-1.46 3.002-1.502 1.366-3.3 2.07-5.464 2.07-2.867 0-4.544-1.367-4.544-3.706 0-2.42 1.636-3.665 5.558-4.233 3.881-.528 4.68-.703 5.91-1.271z"/>
      <path fill="gray" d="M61.733 0a64.06 64.06 0 0 0-5.57.436l.179 1.458a62.596 62.596 0 0 1 5.442-.426zm5.585.046-.075 1.468a62.432 62.432 0 0 1 5.433.52L72.88.578a63.91 63.91 0 0 0-5.561-.532Zm-16.665 1.31a63.301 63.301 0 0 0-5.409 1.398l.43 1.405a61.835 61.835 0 0 1 5.284-1.367Zm27.72.237-.33 1.431a62.536 62.536 0 0 1 5.262 1.455l.452-1.397a63.998 63.998 0 0 0-5.384-1.489ZM39.98 4.623a63.447 63.447 0 0 0-5.081 2.323l.668 1.308a61.98 61.98 0 0 1 4.964-2.27zm49.012.41-.573 1.353a62.539 62.539 0 0 1 4.929 2.346l.688-1.298a64.012 64.012 0 0 0-5.044-2.4ZM30.04 9.706a63.95 63.95 0 0 0-4.6 3.17l.886 1.173a62.484 62.484 0 0 1 4.494-3.098zm-8.906 6.728a64.247 64.247 0 0 0-3.983 3.918l1.075 1.001a62.774 62.774 0 0 1 3.891-3.827zm-7.61 8.165a64.04 64.04 0 0 0-3.247 4.546l1.231.8a62.571 62.571 0 0 1 3.172-4.44zm-6.086 9.357a63.459 63.459 0 0 0-2.408 5.042l1.352.574a61.99 61.99 0 0 1 2.352-4.925zm113.623.973-1.31.667a62.616 62.616 0 0 1 2.263 4.967l1.362-.55a64.073 64.073 0 0 0-2.315-5.083zM3.075 44.23a63.382 63.382 0 0 0-1.49 5.385l1.432.328a61.91 61.91 0 0 1 1.455-5.26Zm122.166 1.049-1.404.429a62.513 62.513 0 0 1 1.366 5.285l1.437-.306a63.983 63.983 0 0 0-1.399-5.409zM.574 55.108a64.093 64.093 0 0 0-.528 5.561l1.467.075a62.622 62.622 0 0 1 .516-5.434Zm126.988 1.088-1.458.179a62.465 62.465 0 0 1 .428 5.441l1.468-.05a63.916 63.916 0 0 0-.438-5.57zM1.468 66.205 0 66.255a64.082 64.082 0 0 0 .435 5.57l1.458-.179a62.61 62.61 0 0 1-.425-5.441Zm125.018 1.071a62.63 62.63 0 0 1-.518 5.434l1.455.203a64.16 64.16 0 0 0 .53-5.561zM2.79 77.031l-1.437.304a63.332 63.332 0 0 0 1.398 5.41l1.405-.43A61.864 61.864 0 0 1 2.79 77.03Zm122.188 1.046a61.966 61.966 0 0 1-1.457 5.26l1.397.454a63.43 63.43 0 0 0 1.492-5.384zM5.981 87.459l-1.362.551a63.434 63.434 0 0 0 2.323 5.082l1.307-.669a61.968 61.968 0 0 1-2.268-4.964Zm115.627.99a61.98 61.98 0 0 1-2.354 4.925l1.296.69a63.447 63.447 0 0 0 2.41-5.04zM10.944 97.17l-1.245.78a63.949 63.949 0 0 0 3.17 4.6l1.172-.885a62.481 62.481 0 0 1-3.097-4.495zm105.534.904a62.546 62.546 0 0 1-3.173 4.44l1.156.906a64.024 64.024 0 0 0 3.249-4.545zm-98.96 7.8-1.092.983a64.235 64.235 0 0 0 3.917 3.983l1.002-1.074a62.77 62.77 0 0 1-3.827-3.892zm92.24.79a62.76 62.76 0 0 1-3.893 3.826l.983 1.092a64.221 64.221 0 0 0 3.984-3.916zm-84.263 6.648-.906 1.157a64.026 64.026 0 0 0 4.546 3.248l.8-1.232a62.554 62.554 0 0 1-4.44-3.173zm76.16.654a62.475 62.475 0 0 1-4.495 3.096l.78 1.245a63.945 63.945 0 0 0 4.6-3.17zm-67.018 5.294-.691 1.296a63.45 63.45 0 0 0 5.04 2.409l.575-1.352a61.984 61.984 0 0 1-4.924-2.353zm57.775.496a61.956 61.956 0 0 1-4.964 2.268l.551 1.362a63.425 63.425 0 0 0 5.082-2.322zm-47.74 3.77-.453 1.396a63.419 63.419 0 0 0 5.385 1.49l.329-1.43a61.949 61.949 0 0 1-5.26-1.456zm37.632.322a62.05 62.05 0 0 1-5.284 1.365l.304 1.437a63.361 63.361 0 0 0 5.41-1.398zm-27.003 2.122-.203 1.455a64.093 64.093 0 0 0 5.561.529l.075-1.467a62.605 62.605 0 0 1-5.433-.517zm16.335.139a62.635 62.635 0 0 1-5.442.424l.05 1.468a64.114 64.114 0 0 0 5.57-.434z"/>
    </symbol>


    <!-- php icon -->
    <symbol viewBox="0 0 128 128" id="php">
      <path fill="url(#aa)" d="M0 64c0 18.593 28.654 33.667 64 33.667 35.346 0 64-15.074 64-33.667 0-18.593-28.655-33.667-64-33.667C28.654 30.333 0 45.407 0 64Z"/>
      <path fill="#777bb3" d="M64 95.167c33.965 0 61.5-13.955 61.5-31.167 0-17.214-27.535-31.167-61.5-31.167S2.5 46.786 2.5 64c0 17.212 27.535 31.167 61.5 31.167Z"/>
      <path d="M34.772 67.864c2.793 0 4.877-.515 6.196-1.53 1.306-1.006 2.207-2.747 2.68-5.175.44-2.27.272-3.854-.5-4.71-.788-.874-2.493-1.317-5.067-1.317h-4.464l-2.473 12.732zM20.173 83.547a.694.694 0 0 1-.68-.828l6.557-33.738a.695.695 0 0 1 .68-.561h14.134c4.442 0 7.748 1.206 9.827 3.585 2.088 2.39 2.734 5.734 1.917 9.935-.333 1.711-.905 3.3-1.7 4.724a15.818 15.818 0 0 1-3.128 3.92c-1.531 1.432-3.264 2.472-5.147 3.083-1.852.604-4.232.91-7.07.91h-5.724l-1.634 8.408a.695.695 0 0 1-.682.562z"/>
      <path fill="#fff" d="M34.19 55.826h3.891c3.107 0 4.186.682 4.553 1.089.607.674.723 2.097.331 4.112-.439 2.257-1.253 3.858-2.42 4.756-1.194.92-3.138 1.386-5.773 1.386h-2.786l2.205-11.342zm6.674-8.1H26.731a1.39 1.39 0 0 0-1.364 1.123L18.81 82.588a1.39 1.39 0 0 0 1.363 1.653h7.35a1.39 1.39 0 0 0 1.363-1.124l1.525-7.846h5.151c2.912 0 5.364-.318 7.287-.944 1.977-.642 3.796-1.731 5.406-3.237a16.522 16.522 0 0 0 3.259-4.087c.831-1.487 1.429-3.147 1.775-4.931.86-4.423.161-7.964-2.076-10.524-2.216-2.537-5.698-3.823-10.349-3.823zM30.301 68.557h4.471c2.963 0 5.17-.557 6.62-1.675 1.451-1.116 2.428-2.98 2.938-5.591.485-2.508.264-4.277-.665-5.308-.931-1.03-2.791-1.546-5.584-1.546h-5.036l-2.743 14.12m10.563-19.445c4.252 0 7.353 1.117 9.303 3.348 1.95 2.232 2.536 5.347 1.76 9.346-.322 1.648-.863 3.154-1.625 4.518-.764 1.366-1.76 2.614-2.991 3.747-1.468 1.373-3.097 2.352-4.892 2.935-1.794.584-4.08.875-6.857.875h-6.296l-1.743 8.97h-7.35l6.558-33.739h14.133"/>
      <path d="M69.459 74.577a.694.694 0 0 1-.682-.827l2.9-14.928c.277-1.42.209-2.438-.19-2.87-.245-.263-.979-.704-3.15-.704h-5.256l-3.646 18.768a.695.695 0 0 1-.683.56h-7.29a.695.695 0 0 1-.683-.826l6.558-33.739a.695.695 0 0 1 .682-.561h7.29a.695.695 0 0 1 .683.826L64.41 48.42h5.653c4.307 0 7.227.758 8.928 2.321 1.733 1.593 2.275 4.14 1.608 7.573l-3.051 15.702a.695.695 0 0 1-.682.56h-7.407z"/>
      <path fill="#fff" d="M65.31 38.755h-7.291a1.39 1.39 0 0 0-1.364 1.124l-6.557 33.738a1.39 1.39 0 0 0 1.363 1.654h7.291a1.39 1.39 0 0 0 1.364-1.124l3.537-18.205h4.682c2.168 0 2.624.463 2.641.484.132.14.305.795.019 2.264l-2.9 14.927a1.39 1.39 0 0 0 1.364 1.654h7.408a1.39 1.39 0 0 0 1.363-1.124l3.051-15.7c.715-3.686.103-6.45-1.82-8.217-1.836-1.686-4.91-2.505-9.398-2.505h-4.81l1.421-7.315a1.39 1.39 0 0 0-1.364-1.655zm0 1.39-1.743 8.968h6.496c4.087 0 6.907.714 8.457 2.14 1.553 1.426 2.017 3.735 1.398 6.93l-3.052 15.699h-7.407l2.901-14.928c.33-1.698.208-2.856-.365-3.474-.573-.617-1.793-.926-3.658-.926h-5.829l-3.756 19.327H51.46l6.558-33.739h7.292z"/>
      <path d="M92.136 67.864c2.793 0 4.878-.515 6.198-1.53 1.304-1.006 2.206-2.747 2.679-5.175.44-2.27.273-3.854-.5-4.71-.788-.874-2.493-1.317-5.067-1.317h-4.463l-2.475 12.732zM77.54 83.547a.694.694 0 0 1-.682-.828l6.557-33.738a.695.695 0 0 1 .682-.561H98.23c4.442 0 7.748 1.206 9.826 3.585 2.089 2.39 2.734 5.734 1.917 9.935a15.878 15.878 0 0 1-1.699 4.724 15.838 15.838 0 0 1-3.128 3.92c-1.53 1.432-3.265 2.472-5.147 3.083-1.852.604-4.232.91-7.071.91h-5.723l-1.633 8.408a.695.695 0 0 1-.683.562z"/>
      <path fill="#fff" d="M91.555 55.826h3.891c3.107 0 4.186.682 4.552 1.089.61.674.724 2.097.333 4.112-.44 2.257-1.254 3.858-2.421 4.756-1.195.92-3.139 1.386-5.773 1.386h-2.786l2.204-11.342zm6.674-8.1H84.096a1.39 1.39 0 0 0-1.363 1.123l-6.558 33.739a1.39 1.39 0 0 0 1.364 1.653h7.35a1.39 1.39 0 0 0 1.363-1.124l1.525-7.846h5.15c2.911 0 5.364-.318 7.286-.944 1.978-.642 3.797-1.731 5.408-3.238a16.52 16.52 0 0 0 3.258-4.086c.832-1.487 1.428-3.147 1.775-4.931.86-4.423.162-7.964-2.076-10.524-2.216-2.537-5.697-3.823-10.35-3.823zM87.666 68.557h4.47c2.964 0 5.17-.557 6.622-1.675 1.45-1.116 2.428-2.98 2.936-5.591.487-2.508.266-4.277-.665-5.308-.93-1.03-2.791-1.546-5.583-1.546h-5.035Zm10.563-19.445c4.251 0 7.354 1.117 9.303 3.348 1.95 2.232 2.537 5.347 1.759 9.346-.32 1.648-.862 3.154-1.624 4.518-.763 1.366-1.76 2.614-2.992 3.747-1.467 1.373-3.097 2.352-4.892 2.935-1.793.584-4.078.875-6.856.875h-6.295l-1.745 8.97h-7.35l6.558-33.739h14.133"/>
      <defs>
        <radialGradient id="aa" cx="0" cy="0" r="1" gradientTransform="translate(38.426 42.169) scale(84.04136)" gradientUnits="userSpaceOnUse">
          <stop stop-color="#AEB2D5"/>
          <stop offset=".3" stop-color="#AEB2D5"/>
          <stop offset=".75" stop-color="#484C89"/>
          <stop offset="1" stop-color="#484C89"/>
        </radialGradient>
      </defs>
    </symbol>


  </defs>
</svg>